<?xml version="1.0" encoding="utf-8"?>
<!-- Generator: Adobe Illustrator 24.0.1, SVG Export Plug-In . SVG Version: 6.00 Build 0)  -->
<svg version="1.1" id="Layer_1" xmlns="http://www.w3.org/2000/svg" xmlns:xlink="http://www.w3.org/1999/xlink" x="0px" y="0px"
	 viewBox="0 0 135.6 154.8" style="enable-background:new 0 0 135.6 154.8;" xml:space="preserve">
<style type="text/css">
	.st0{fill:#F26527;}
	.st1{fill:#E3E3E3;}
	.st2{opacity:0.2;}
	.st3{fill:#404D66;}
	.st4{fill:#FFFFFF;}
	.st5{fill:#88CB96;}
	.st6{fill:#FAE480;}
</style>
<g>
	<g>
		<g>
			<path class="st0" d="M96.64,79.24c-0.82,0-1.49-0.67-1.49-1.49V44.27H70.33c-0.82,0-1.49-0.67-1.49-1.49
				c0-0.83,0.67-1.49,1.49-1.49h26.31c0.82,0,1.49,0.67,1.49,1.49v34.97C98.14,78.57,97.47,79.24,96.64,79.24z"/>
		</g>
	</g>
</g>
<g>
	<g>
		<g>
			<path class="st0" d="M75.26,49.2c-0.38,0-0.76-0.15-1.06-0.44l-4.93-4.93c-0.58-0.58-0.58-1.53,0-2.11l4.93-4.93
				c0.58-0.58,1.53-0.58,2.11,0c0.58,0.58,0.58,1.53,0,2.11l-3.87,3.87l3.87,3.87c0.58,0.58,0.58,1.53,0,2.11
				C76.02,49.05,75.64,49.2,75.26,49.2z"/>
		</g>
	</g>
</g>
<g>
	<g>
		<path class="st0" d="M96.64,79.24c-0.4,0-0.78-0.16-1.06-0.44l-4.93-4.93c-0.58-0.58-0.58-1.53,0-2.11c0.58-0.58,1.53-0.58,2.11,0
			l3.87,3.87l3.87-3.87c0.58-0.58,1.53-0.58,2.11,0c0.58,0.58,0.58,1.53,0,2.11L97.7,78.8C97.42,79.08,97.04,79.24,96.64,79.24z"/>
	</g>
</g>
<g>
	<g>
		<rect x="17.79" y="25.25" class="st1" width="50.84" height="50.84"/>
	</g>
	<g class="st2">
		<rect x="42.8" y="25.25" class="st1" width="25.83" height="50.84"/>
	</g>
	<g>
		<g>
			<rect x="17.79" y="25.25" class="st3" width="50.7" height="6.2"/>
		</g>
		<g class="st2">
			<rect x="42.8" y="25.25" class="st3" width="25.69" height="6.2"/>
		</g>
	</g>
	<g>
		<g>
			<g>
				<path class="st4" d="M22.23,29.29c-0.04,0-0.09-0.01-0.14-0.02c-0.05-0.01-0.1-0.02-0.14-0.04c-0.04-0.02-0.09-0.04-0.13-0.07
					c-0.04-0.02-0.08-0.05-0.11-0.09c-0.14-0.14-0.22-0.33-0.22-0.54c0-0.19,0.08-0.39,0.22-0.53c0.03-0.03,0.07-0.07,0.11-0.09
					c0.04-0.03,0.08-0.05,0.13-0.07c0.04-0.02,0.09-0.03,0.14-0.04c0.24-0.04,0.5,0.03,0.68,0.21c0.14,0.14,0.21,0.33,0.21,0.53
					c0,0.2-0.08,0.39-0.21,0.54C22.62,29.21,22.43,29.29,22.23,29.29z"/>
			</g>
		</g>
		<g>
			<g>
				<path class="st4" d="M27.35,28.54c0-0.42,0.34-0.75,0.75-0.75l0,0c0.42,0,0.75,0.33,0.75,0.75l0,0c0,0.41-0.33,0.74-0.75,0.74
					l0,0C27.69,29.29,27.35,28.95,27.35,28.54z"/>
			</g>
		</g>
		<g>
			<g>
				<path class="st4" d="M33.98,29.29c-0.19,0-0.39-0.08-0.53-0.22c-0.14-0.14-0.22-0.33-0.22-0.54c0-0.19,0.08-0.39,0.22-0.53
					c0.28-0.28,0.78-0.28,1.06,0c0.14,0.14,0.22,0.33,0.22,0.53c0,0.2-0.08,0.4-0.22,0.54C34.37,29.21,34.18,29.29,33.98,29.29z"/>
			</g>
		</g>
	</g>
</g>
<g>
	<polygon class="st5" points="53.62,58.77 49.62,52.65 46.11,58.03 50.07,64.9 57.62,64.9 	"/>
</g>
<g>
	<polygon class="st5" points="46.11,58.03 44.74,55.66 39.41,46.43 34.08,55.66 28.75,64.9 39.41,64.9 41.62,64.9 49.62,64.9 
		50.07,64.9 	"/>
</g>
<g class="st2">
	<polygon class="st5" points="46.11,58.03 44.74,55.66 39.41,46.43 34.08,55.66 28.75,64.9 39.41,64.9 41.62,64.9 49.62,64.9 
		50.07,64.9 	"/>
</g>
<g>
	<g>
		<g>
			<path class="st6" d="M46.11,40.3c-1.69,0-3.06,1.37-3.06,3.06c0,1.13,0.61,2.12,1.53,2.65c0.45,0.26,0.98,0.41,1.54,0.41
				c1.02,0,1.92-0.49,2.47-1.26c0.37-0.51,0.59-1.13,0.59-1.81C49.17,41.68,47.8,40.3,46.11,40.3z"/>
		</g>
	</g>
	<g class="st2">
		<g>
			<path class="st6" d="M46.11,40.3v6.13c1.02,0,1.92-0.49,2.47-1.26c0.37-0.51,0.59-1.13,0.59-1.81
				C49.17,41.68,47.8,40.3,46.11,40.3z"/>
		</g>
	</g>
</g>
<g>
	<g>
		<rect x="66.6" y="79.56" class="st1" width="50.84" height="50.84"/>
	</g>
	<g class="st2">
		<rect x="91.61" y="79.56" class="st1" width="25.83" height="50.84"/>
	</g>
	<g>
		<g>
			<rect x="66.6" y="79.56" class="st3" width="50.7" height="6.2"/>
		</g>
		<g class="st2">
			<rect x="91.61" y="79.56" class="st3" width="25.69" height="6.2"/>
		</g>
	</g>
	<g>
		<g>
			<g>
				<path class="st4" d="M71.03,83.6c-0.04,0-0.09-0.01-0.14-0.02c-0.05-0.01-0.1-0.02-0.14-0.04c-0.04-0.02-0.09-0.04-0.13-0.07
					c-0.04-0.02-0.08-0.05-0.11-0.09c-0.14-0.14-0.22-0.33-0.22-0.54c0-0.19,0.08-0.39,0.22-0.53c0.03-0.03,0.07-0.07,0.11-0.09
					c0.04-0.03,0.08-0.05,0.13-0.07c0.04-0.02,0.09-0.03,0.14-0.04c0.24-0.04,0.5,0.03,0.68,0.21c0.14,0.14,0.21,0.33,0.21,0.53
					c0,0.2-0.08,0.39-0.21,0.54C71.43,83.52,71.23,83.6,71.03,83.6z"/>
			</g>
		</g>
		<g>
			<g>
				<path class="st4" d="M76.16,82.85c0-0.42,0.34-0.75,0.75-0.75l0,0c0.42,0,0.75,0.33,0.75,0.75l0,0c0,0.41-0.33,0.74-0.75,0.74
					l0,0C76.5,83.6,76.16,83.26,76.16,82.85z"/>
			</g>
		</g>
		<g>
			<g>
				<path class="st4" d="M82.78,83.6c-0.19,0-0.39-0.08-0.53-0.22c-0.14-0.14-0.22-0.33-0.22-0.54c0-0.19,0.08-0.39,0.22-0.53
					c0.28-0.28,0.78-0.28,1.06,0c0.14,0.14,0.22,0.33,0.22,0.53c0,0.2-0.08,0.4-0.22,0.54C83.18,83.52,82.98,83.6,82.78,83.6z"/>
			</g>
		</g>
	</g>
</g>
<g>
	<polygon class="st5" points="102.42,113.08 98.43,106.96 94.91,112.34 98.88,119.21 106.42,119.21 	"/>
</g>
<g>
	<polygon class="st5" points="94.91,112.34 93.55,109.97 88.22,100.74 82.89,109.97 77.55,119.21 88.22,119.21 90.43,119.21 
		98.43,119.21 98.88,119.21 	"/>
</g>
<g class="st2">
	<polygon class="st5" points="94.91,112.34 93.55,109.97 88.22,100.74 82.89,109.97 77.55,119.21 88.22,119.21 90.43,119.21 
		98.43,119.21 98.88,119.21 	"/>
</g>
<g>
	<g>
		<g>
			<path class="st6" d="M94.91,94.61c-1.69,0-3.06,1.37-3.06,3.06c0,1.13,0.61,2.12,1.53,2.65c0.45,0.26,0.98,0.41,1.54,0.41
				c1.02,0,1.92-0.49,2.47-1.26c0.37-0.51,0.59-1.13,0.59-1.81C97.98,95.99,96.61,94.61,94.91,94.61z"/>
		</g>
	</g>
	<g class="st2">
		<g>
			<path class="st6" d="M94.91,94.61v6.13c1.02,0,1.92-0.49,2.47-1.26c0.37-0.51,0.59-1.13,0.59-1.81
				C97.98,95.99,96.61,94.61,94.91,94.61z"/>
		</g>
	</g>
</g>
</svg>
