<?xml version="1.0" encoding="utf-8"?>
<!-- Generator: Adobe Illustrator 24.0.1, SVG Export Plug-In . SVG Version: 6.00 Build 0)  -->
<svg version="1.1" id="Layer_1" xmlns="http://www.w3.org/2000/svg" xmlns:xlink="http://www.w3.org/1999/xlink" x="0px" y="0px"
	 viewBox="0 0 135.6 154.8" style="enable-background:new 0 0 135.6 154.8;" xml:space="preserve">
<style type="text/css">
	.st0{fill:#F26527;}
	.st1{opacity:0.2;}
	.st2{fill:#F15947;}
	.st3{fill:#4FC6DA;}
	.st4{fill:#88CB96;}
	.st5{fill:#FAE480;}
	.st6{fill:#404D66;}
</style>
<g>
	<g>
		<g>
			<polygon class="st0" points="100.2,44.79 93.03,40.55 81.61,33.8 67.26,25.33 53.06,33.72 41.49,40.55 34.39,44.75 15.72,55.78 
				41.49,71 67.26,86.23 93.03,71 118.8,55.78 			"/>
		</g>
		<g class="st1">
			<polygon class="st2" points="15.72,55.78 41.49,71 67.26,86.23 93.03,71 118.8,55.78 			"/>
		</g>
	</g>
	<g>
		<g>
			<polygon class="st3" points="100.06,66.36 92.88,62.12 81.46,55.37 67.12,46.9 52.92,55.29 41.35,62.12 34.25,66.32 15.58,77.35 
				41.35,92.58 67.12,107.8 92.88,92.58 118.65,77.35 			"/>
		</g>
		<g class="st1">
			<polygon class="st3" points="15.58,77.35 41.35,92.58 67.12,107.8 92.88,92.58 118.65,77.35 			"/>
		</g>
	</g>
	<g>
		<g>
			<polygon class="st4" points="99.91,87.93 92.74,83.7 81.32,76.95 66.97,68.47 52.77,76.86 41.2,83.7 34.1,87.89 15.44,98.92 
				41.2,114.15 66.97,129.38 92.74,114.15 118.51,98.92 			"/>
		</g>
		<g class="st1">
			<polygon class="st5" points="15.44,98.92 41.2,114.15 66.97,129.38 92.74,114.15 118.51,98.92 			"/>
		</g>
	</g>
</g>
<g>
	<g>
		<g>
			<path class="st6" d="M96.72,84.89c-0.86,0-1.56-0.7-1.56-1.56V48.37H69.24c-0.86,0-1.56-0.7-1.56-1.56c0-0.86,0.7-1.56,1.56-1.56
				h27.48c0.86,0,1.56,0.7,1.56,1.56v36.52C98.28,84.19,97.58,84.89,96.72,84.89z"/>
		</g>
	</g>
</g>
<g>
	<g>
		<g>
			<path class="st6" d="M74.39,53.51c-0.4,0-0.8-0.15-1.1-0.46l-5.15-5.15c-0.61-0.61-0.61-1.6,0-2.21l5.15-5.15
				c0.61-0.61,1.6-0.61,2.21,0c0.61,0.61,0.61,1.6,0,2.21l-4.05,4.05l4.05,4.05c0.61,0.61,0.61,1.6,0,2.21
				C75.18,53.36,74.79,53.51,74.39,53.51z"/>
		</g>
	</g>
</g>
<g>
	<g>
		<path class="st6" d="M96.72,84.89c-0.41,0-0.81-0.16-1.1-0.46l-5.15-5.15c-0.61-0.61-0.61-1.6,0-2.21c0.61-0.61,1.6-0.61,2.21,0
			l4.05,4.05l4.05-4.05c0.61-0.61,1.6-0.61,2.21,0c0.61,0.61,0.61,1.6,0,2.21l-5.15,5.15C97.53,84.72,97.13,84.89,96.72,84.89z"/>
	</g>
</g>
</svg>
