<?xml version="1.0" encoding="utf-8"?>
<!-- Generator: Adobe Illustrator 24.0.1, SVG Export Plug-In . SVG Version: 6.00 Build 0)  -->
<svg version="1.1" id="Layer_1" xmlns="http://www.w3.org/2000/svg" xmlns:xlink="http://www.w3.org/1999/xlink" x="0px" y="0px"
	 viewBox="0 0 135.6 154.8" style="enable-background:new 0 0 135.6 154.8;" xml:space="preserve">
<style type="text/css">
	.st0{fill:#E3E3E3;}
	.st1{fill:#88CB96;}
	.st2{opacity:0.2;}
	.st3{fill:#FFFFFF;}
	.st4{fill:#404D66;}
	.st5{fill:#F26527;}
</style>
<g>
	<g>
		<g>
			<rect x="13.8" y="27.36" class="st0" width="74.17" height="100.47"/>
		</g>
	</g>
	<g>
		<g>
			<rect x="13.8" y="27.36" class="st1" width="73.97" height="14.23"/>
		</g>
	</g>
	<g class="st2">
		<g>
			<rect x="50.29" y="27.36" class="st0" width="37.68" height="100.47"/>
		</g>
	</g>
	<g class="st2">
		<g>
			<rect x="50.29" y="27.36" class="st1" width="37.47" height="14.23"/>
		</g>
	</g>
	<g>
		<g>
			<g>
				<g>
					<path class="st3" d="M20.18,36c-0.09,0-0.19-0.01-0.29-0.03c-0.09-0.02-0.19-0.05-0.28-0.09c-0.09-0.04-0.18-0.08-0.26-0.14
						c-0.08-0.05-0.16-0.11-0.23-0.18c-0.28-0.28-0.44-0.67-0.44-1.07c0-0.39,0.16-0.78,0.44-1.06c0.07-0.06,0.15-0.13,0.23-0.18
						c0.08-0.06,0.17-0.1,0.26-0.14c0.09-0.04,0.19-0.07,0.28-0.09c0.49-0.09,1.01,0.07,1.36,0.41c0.27,0.28,0.43,0.67,0.43,1.06
						c0,0.4-0.16,0.78-0.43,1.07C20.97,35.84,20.58,36,20.18,36z"/>
				</g>
			</g>
		</g>
		<g>
			<g>
				<g>
					<path class="st3" d="M30.45,34.5c0-0.83,0.68-1.5,1.5-1.5l0,0c0.83,0,1.5,0.67,1.5,1.5l0,0c0,0.82-0.67,1.49-1.5,1.49l0,0
						C31.13,35.99,30.45,35.32,30.45,34.5z"/>
				</g>
			</g>
		</g>
		<g>
			<g>
				<g>
					<path class="st3" d="M43.72,36c-0.39,0-0.78-0.16-1.06-0.44c-0.28-0.28-0.44-0.67-0.44-1.07c0-0.39,0.16-0.78,0.44-1.06
						c0.56-0.56,1.57-0.55,2.12,0c0.28,0.28,0.44,0.67,0.44,1.06c0,0.4-0.16,0.79-0.44,1.07C44.51,35.84,44.12,36,43.72,36z"/>
				</g>
			</g>
		</g>
	</g>
</g>
<g>
	<g>
		<path class="st4" d="M41.67,106.09c-0.83,0-1.5-0.67-1.5-1.5v-7.61c0-0.83,0.67-1.5,1.5-1.5c0.83,0,1.5,0.67,1.5,1.5v7.61
			C43.17,105.42,42.5,106.09,41.67,106.09z"/>
	</g>
</g>
<g>
	<g>
		<path class="st4" d="M56.82,102.29c-0.83,0-1.5-0.67-1.5-1.5v-10.6c0-0.83,0.67-1.5,1.5-1.5c0.83,0,1.5,0.67,1.5,1.5v10.6
			C58.32,101.62,57.65,102.29,56.82,102.29z"/>
	</g>
</g>
<g>
	<g>
		<path class="st4" d="M72.12,96.06c-0.83,0-1.5-0.67-1.5-1.5V79.62c0-0.83,0.67-1.5,1.5-1.5c0.83,0,1.5,0.67,1.5,1.5v14.94
			C73.62,95.39,72.95,96.06,72.12,96.06z"/>
	</g>
</g>
<g>
	<g>
		<path class="st4" d="M103.8,81.17c-0.83,0-1.5-0.67-1.5-1.5V66.24c0-0.83,0.67-1.5,1.5-1.5c0.83,0,1.5,0.67,1.5,1.5v13.43
			C105.31,80.5,104.63,81.17,103.8,81.17z"/>
	</g>
</g>
<g>
	<g>
		<path class="st4" d="M86.27,88.59c-0.83,0-1.5-0.67-1.5-1.5V72.91c0-0.83,0.67-1.5,1.5-1.5c0.83,0,1.5,0.67,1.5,1.5v14.18
			C87.78,87.92,87.1,88.59,86.27,88.59z"/>
	</g>
</g>
<g>
	<g>
		<path class="st4" d="M33.1,66.11c-0.38,0-0.77-0.15-1.06-0.44l-4.32-4.32l-4.32,4.32c-0.59,0.59-1.54,0.59-2.12,0
			c-0.59-0.59-0.59-1.54,0-2.12l5.38-5.38c0.59-0.59,1.54-0.59,2.12,0l5.38,5.38c0.59,0.59,0.59,1.54,0,2.12
			C33.86,65.97,33.48,66.11,33.1,66.11z"/>
	</g>
</g>
<g>
	<g>
		<path class="st4" d="M119.73,68.05c-0.38,0-0.77-0.15-1.06-0.44l-4.32-4.32l-4.32,4.32c-0.59,0.59-1.54,0.59-2.12,0
			c-0.59-0.59-0.59-1.54,0-2.12l5.38-5.38c0.59-0.59,1.54-0.59,2.12,0l5.38,5.38c0.59,0.59,0.59,1.54,0,2.12
			C120.5,67.91,120.12,68.05,119.73,68.05z"/>
	</g>
</g>
<g>
	<g>
		<g>
			<g>
				<path class="st5" d="M41.67,102.81c-2.75,0-4.98,2.23-4.98,4.98c0,1.84,1,3.45,2.48,4.31c0.73,0.43,1.59,0.67,2.5,0.67
					c1.65,0,3.11-0.8,4.02-2.04c0.6-0.82,0.96-1.84,0.96-2.94C46.65,105.04,44.42,102.81,41.67,102.81z"/>
			</g>
		</g>
	</g>
	<g class="st2">
		<g>
			<g>
				<path class="st5" d="M41.67,102.81v9.96c1.65,0,3.11-0.8,4.02-2.04c0.6-0.82,0.96-1.84,0.96-2.94
					C46.65,105.04,44.42,102.81,41.67,102.81z"/>
			</g>
		</g>
	</g>
</g>
<g>
	<g>
		<g>
			<g>
				<path class="st5" d="M56.82,97.83c-2.75,0-4.98,2.23-4.98,4.98c0,1.84,1,3.45,2.48,4.31c0.73,0.43,1.59,0.67,2.5,0.67
					c1.65,0,3.11-0.8,4.02-2.04c0.6-0.82,0.96-1.84,0.96-2.94C61.8,100.06,59.57,97.83,56.82,97.83z"/>
			</g>
		</g>
	</g>
	<g class="st2">
		<g>
			<g>
				<path class="st5" d="M56.82,97.83v9.96c1.65,0,3.11-0.8,4.02-2.04c0.6-0.82,0.96-1.84,0.96-2.94
					C61.8,100.06,59.57,97.83,56.82,97.83z"/>
			</g>
		</g>
	</g>
</g>
<g>
	<g>
		<g>
			<g>
				<path class="st5" d="M72.11,92c-2.75,0-4.98,2.23-4.98,4.98c0,1.84,1,3.45,2.48,4.31c0.73,0.43,1.59,0.67,2.5,0.67
					c1.65,0,3.11-0.8,4.02-2.04c0.6-0.82,0.96-1.84,0.96-2.94C77.1,94.23,74.87,92,72.11,92z"/>
			</g>
		</g>
	</g>
	<g class="st2">
		<g>
			<g>
				<path class="st5" d="M72.11,92v9.96c1.65,0,3.11-0.8,4.02-2.04c0.6-0.82,0.96-1.84,0.96-2.94C77.1,94.23,74.87,92,72.11,92z"/>
			</g>
		</g>
	</g>
</g>
<g>
	<g>
		<g>
			<g>
				<path class="st5" d="M86.27,84.6c-2.75,0-4.98,2.23-4.98,4.98c0,1.84,1,3.45,2.48,4.31c0.73,0.43,1.59,0.67,2.5,0.67
					c1.65,0,3.11-0.8,4.02-2.04c0.6-0.82,0.96-1.84,0.96-2.94C91.25,86.83,89.02,84.6,86.27,84.6z"/>
			</g>
		</g>
	</g>
	<g class="st2">
		<g>
			<g>
				<path class="st5" d="M86.27,84.6v9.96c1.65,0,3.11-0.8,4.02-2.04c0.6-0.82,0.96-1.84,0.96-2.94
					C91.25,86.83,89.02,84.6,86.27,84.6z"/>
			</g>
		</g>
	</g>
</g>
<g>
	<g>
		<g>
			<g>
				<path class="st5" d="M103.8,77.6c-2.75,0-4.98,2.23-4.98,4.98c0,1.84,1,3.45,2.48,4.31c0.73,0.43,1.59,0.67,2.5,0.67
					c1.65,0,3.11-0.8,4.02-2.04c0.6-0.82,0.96-1.84,0.96-2.94C108.79,79.83,106.56,77.6,103.8,77.6z"/>
			</g>
		</g>
	</g>
	<g class="st2">
		<g>
			<g>
				<path class="st5" d="M103.8,77.6v9.96c1.65,0,3.11-0.8,4.02-2.04c0.6-0.82,0.96-1.84,0.96-2.94
					C108.79,79.83,106.56,77.6,103.8,77.6z"/>
			</g>
		</g>
	</g>
</g>
<g>
	<g>
		<path class="st5" d="M41.68,98.32c-0.41,0-0.82-0.17-1.11-0.49L26.6,82.56c-0.56-0.61-0.52-1.56,0.09-2.12
			c0.61-0.56,1.56-0.52,2.12,0.09L40.4,93.19l1.3-21c0.04-0.62,0.46-1.16,1.06-1.34c0.6-0.18,1.25,0.02,1.63,0.52l11.56,15.02
			l2.42-18.59c0.07-0.56,0.46-1.04,0.99-1.22c0.54-0.19,1.13-0.06,1.54,0.33l10.56,10.15l3.61-13.74c0.13-0.51,0.53-0.92,1.05-1.06
			c0.51-0.14,1.06-0.01,1.45,0.36l7.74,7.43L91.3,46.8c0.15-0.59,0.65-1.04,1.26-1.12c0.61-0.08,1.21,0.22,1.5,0.76l8.58,15.41
			l1.52-31.86c0.04-0.83,0.73-1.46,1.57-1.43c0.83,0.04,1.47,0.74,1.43,1.57l-1.77,37.12c-0.03,0.67-0.5,1.24-1.16,1.39
			c-0.65,0.15-1.33-0.15-1.66-0.73l-9.31-16.72l-5.69,22.09c-0.13,0.52-0.53,0.92-1.04,1.07c-0.51,0.15-1.07,0.01-1.45-0.36
			l-7.75-7.44L73.72,80.3c-0.14,0.52-0.53,0.92-1.05,1.06c-0.51,0.14-1.06,0.01-1.45-0.36l-10.26-9.86l-2.5,19.24
			c-0.08,0.6-0.51,1.1-1.1,1.26c-0.59,0.16-1.21-0.05-1.58-0.53L44.45,76.38l-1.27,20.53c-0.04,0.6-0.43,1.12-1,1.32
			C42.02,98.3,41.85,98.32,41.68,98.32z"/>
	</g>
</g>
<g>
	<g>
		<path class="st5" d="M111.05,35.78c-0.38,0-0.77-0.15-1.06-0.44l-4.32-4.32l-4.32,4.32c-0.59,0.59-1.54,0.59-2.12,0
			c-0.59-0.59-0.59-1.54,0-2.12l5.38-5.38c0.28-0.28,0.66-0.44,1.06-0.44l0,0c0.4,0,0.78,0.16,1.06,0.44l5.38,5.38
			c0.59,0.59,0.59,1.54,0,2.12C111.82,35.63,111.44,35.78,111.05,35.78z"/>
	</g>
</g>
<g>
	<g>
		<path class="st4" d="M27.71,83.05c-0.83,0-1.5-0.67-1.5-1.5V60.91c0-0.83,0.67-1.5,1.5-1.5c0.83,0,1.5,0.67,1.5,1.5v20.64
			C29.21,82.38,28.54,83.05,27.71,83.05z"/>
	</g>
</g>
<g>
	<g>
		<path class="st4" d="M114.37,119.11H27.71c-0.83,0-1.5-0.67-1.5-1.5V81.55c0-0.83,0.67-1.5,1.5-1.5c0.83,0,1.5,0.67,1.5,1.5v34.56
			h83.65V63.44c0-0.83,0.67-1.5,1.5-1.5c0.83,0,1.5,0.67,1.5,1.5v54.16C115.87,118.43,115.2,119.11,114.37,119.11z"/>
	</g>
</g>
</svg>
