<?xml version="1.0" encoding="utf-8"?>
<!-- Generator: Adobe Illustrator 24.0.1, SVG Export Plug-In . SVG Version: 6.00 Build 0)  -->
<svg version="1.1" id="Layer_1" xmlns="http://www.w3.org/2000/svg" xmlns:xlink="http://www.w3.org/1999/xlink" x="0px" y="0px"
	 viewBox="0 0 135.6 154.8" style="enable-background:new 0 0 135.6 154.8;" xml:space="preserve">
<style type="text/css">
	.st0{fill:#F26527;}
	.st1{fill:#88CB96;}
	.st2{opacity:0.2;}
	.st3{fill:#F15947;}
	.st4{fill:#404D66;}
	.st5{fill-rule:evenodd;clip-rule:evenodd;fill:#404D66;}
</style>
<g>
	<path class="st0" d="M64.24,62.29h13.38V34.34c0-4.9-3.97-8.87-8.87-8.87H24.25c-4.9,0-8.87,3.97-8.87,8.87v32.97
		c0,4.9,3.97,8.87,8.87,8.87h11.37l-6.82,14.39l19.04-13.88h7.3v-5.28C55.13,66.37,59.21,62.29,64.24,62.29z"/>
</g>
<g>
	<path class="st1" d="M109.96,62.29H77.62H64.24c-5.03,0-9.11,4.08-9.11,9.11v5.28v1.39v27.2c0,5.03,4.08,9.11,9.11,9.11l17.35-0.43
		l23.7,15.21l-7.01-14.78h11.68c5.03,0,9.11-4.08,9.11-9.11V71.41C119.08,66.37,114.99,62.29,109.96,62.29z"/>
</g>
<g class="st2">
	<path class="st3" d="M64.24,62.29h13.38V34.34c0-4.9-3.97-8.87-8.87-8.87h-23.8v49.75L28.79,90.57l19.04-13.88h7.3v-5.28
		C55.13,66.37,59.21,62.29,64.24,62.29z"/>
</g>
<g class="st2">
	<path class="st1" d="M109.96,62.29H88.03v50.33l17.27,16.54l-7.01-14.78h11.68c5.03,0,9.11-4.08,9.11-9.11V71.41
		C119.08,66.37,114.99,62.29,109.96,62.29z"/>
</g>
<g>
	<g>
		<g>
			<path class="st4" d="M32.05,45.22c-2.73,0-4.95,2.21-4.95,4.95c0,1.83,0.99,3.42,2.47,4.28c0.73,0.42,1.58,0.67,2.48,0.67
				c1.64,0,3.09-0.8,3.99-2.03c0.6-0.82,0.95-1.83,0.95-2.92C37,47.44,34.79,45.22,32.05,45.22z"/>
		</g>
	</g>
	<g class="st2">
		<g>
			<path class="st4" d="M32.05,45.22v9.89c1.64,0,3.09-0.8,3.99-2.03c0.6-0.82,0.95-1.83,0.95-2.92
				C37,47.44,34.79,45.22,32.05,45.22z"/>
		</g>
	</g>
</g>
<g>
	<g>
		<g>
			<path class="st4" d="M45.1,45.22c-2.73,0-4.95,2.21-4.95,4.95c0,1.83,0.99,3.42,2.47,4.28c0.73,0.42,1.58,0.67,2.48,0.67
				c1.64,0,3.09-0.8,3.99-2.03c0.6-0.82,0.95-1.83,0.95-2.92C50.05,47.44,47.83,45.22,45.1,45.22z"/>
		</g>
	</g>
	<g class="st2">
		<g>
			<path class="st4" d="M45.1,45.22v9.89c1.64,0,3.09-0.8,3.99-2.03c0.6-0.82,0.95-1.83,0.95-2.92
				C50.05,47.44,47.83,45.22,45.1,45.22z"/>
		</g>
	</g>
</g>
<g>
	<g>
		<g>
			<path class="st4" d="M58.15,45.22c-2.73,0-4.95,2.21-4.95,4.95c0,1.83,0.99,3.42,2.47,4.28c0.73,0.42,1.58,0.67,2.48,0.67
				c1.64,0,3.09-0.8,3.99-2.03c0.6-0.82,0.95-1.83,0.95-2.92C63.1,47.44,60.88,45.22,58.15,45.22z"/>
		</g>
	</g>
	<g class="st2">
		<g>
			<path class="st4" d="M58.15,45.22v9.89c1.64,0,3.09-0.8,3.99-2.03c0.6-0.82,0.95-1.83,0.95-2.92
				C63.1,47.44,60.88,45.22,58.15,45.22z"/>
		</g>
	</g>
</g>
<g>
	<g>
		<path class="st5" d="M87.41,72.12c-8.14,0-14.73,6.6-14.73,14.74c0,2.78,0.77,5.39,2.11,7.61l-2.66,7.91l8.16-2.61
			c2.11,1.17,4.54,1.83,7.12,1.83c8.14,0,14.74-6.6,14.74-14.74C102.15,78.72,95.55,72.12,87.41,72.12z M87.41,99.12
			c-2.49,0-4.81-0.75-6.75-2.03l-4.71,1.51l1.53-4.55c-1.47-2.02-2.34-4.51-2.34-7.19c0-6.76,5.5-12.27,12.27-12.27
			c6.76,0,12.27,5.5,12.27,12.27C99.68,93.62,94.18,99.12,87.41,99.12z M94.32,90.21c-0.37-0.2-2.18-1.18-2.52-1.32
			c-0.34-0.14-0.59-0.21-0.85,0.16c-0.26,0.37-1.02,1.19-1.25,1.43c-0.23,0.24-0.45,0.27-0.82,0.06c-0.37-0.2-1.57-0.64-2.95-1.98
			c-1.08-1.04-1.79-2.3-1.99-2.68c-0.21-0.38,0-0.58,0.19-0.76c0.18-0.16,0.39-0.43,0.59-0.64c0.2-0.21,0.26-0.37,0.4-0.61
			c0.13-0.25,0.08-0.47-0.01-0.66c-0.09-0.19-0.77-2.07-1.06-2.84c-0.29-0.76-0.6-0.65-0.82-0.66c-0.22-0.01-0.47-0.05-0.72-0.06
			c-0.25-0.01-0.66,0.07-1.02,0.43c-0.36,0.36-1.36,1.24-1.43,3.09c-0.07,1.85,1.21,3.69,1.39,3.95c0.18,0.26,2.45,4.27,6.21,5.92
			c3.77,1.65,3.79,1.15,4.48,1.11c0.69-0.04,2.26-0.83,2.61-1.69c0.35-0.87,0.37-1.62,0.29-1.78
			C94.94,90.51,94.69,90.41,94.32,90.21z"/>
	</g>
</g>
</svg>
