<?xml version="1.0" encoding="utf-8"?>
<!-- Generator: Adobe Illustrator 24.0.1, SVG Export Plug-In . SVG Version: 6.00 Build 0)  -->
<svg version="1.1" id="Layer_1" xmlns="http://www.w3.org/2000/svg" xmlns:xlink="http://www.w3.org/1999/xlink" x="0px" y="0px"
	 viewBox="0 0 135.6 154.8" style="enable-background:new 0 0 135.6 154.8;" xml:space="preserve">
<style type="text/css">
	.st0{fill:#E3E3E3;}
	.st1{fill:#F26527;}
	.st2{opacity:0.2;}
	.st3{fill:#4FC6DA;}
	.st4{fill:#FFFFFF;}
	.st5{fill:#404D66;}
	.st6{fill:#88CB96;}
</style>
<g>
	<g>
		<rect x="17.2" y="26.71" class="st0" width="101.67" height="101.67"/>
	</g>
	<g>
		<rect x="17.2" y="26.71" class="st1" width="101.41" height="14.11"/>
	</g>
	<g class="st2">
		<rect x="67.22" y="26.71" class="st0" width="51.65" height="101.67"/>
	</g>
	<g class="st2">
		<rect x="67.22" y="26.71" class="st3" width="51.37" height="14.11"/>
	</g>
	<g>
		<g>
			<g>
				<path class="st4" d="M26.07,36.3c-0.09,0-0.19-0.01-0.29-0.03c-0.09-0.02-0.19-0.05-0.28-0.09c-0.09-0.04-0.18-0.08-0.26-0.14
					c-0.08-0.05-0.16-0.11-0.23-0.18c-0.28-0.28-0.44-0.67-0.44-1.07c0-0.39,0.16-0.78,0.44-1.06c0.07-0.06,0.15-0.13,0.23-0.18
					c0.08-0.06,0.17-0.1,0.26-0.14c0.09-0.04,0.19-0.07,0.28-0.09c0.49-0.09,1.01,0.07,1.36,0.41c0.27,0.28,0.43,0.67,0.43,1.06
					c0,0.4-0.16,0.78-0.43,1.07C26.86,36.14,26.47,36.3,26.07,36.3z"/>
			</g>
		</g>
		<g>
			<g>
				<path class="st4" d="M36.32,34.8c0-0.83,0.68-1.5,1.5-1.5l0,0c0.83,0,1.5,0.67,1.5,1.5l0,0c0,0.82-0.67,1.49-1.5,1.49l0,0
					C37,36.29,36.32,35.62,36.32,34.8z"/>
			</g>
		</g>
		<g>
			<g>
				<path class="st4" d="M49.57,36.3c-0.39,0-0.78-0.16-1.06-0.44c-0.28-0.28-0.44-0.67-0.44-1.07c0-0.39,0.16-0.78,0.44-1.06
					c0.56-0.56,1.57-0.55,2.12,0c0.28,0.28,0.44,0.67,0.44,1.06c0,0.4-0.16,0.79-0.44,1.07C50.36,36.14,49.97,36.3,49.57,36.3z"/>
			</g>
		</g>
	</g>
</g>
<g>
	<rect x="80.15" y="52.79" class="st5" width="25.5" height="25.5"/>
</g>
<g>
	<rect x="80.15" y="89.54" class="st5" width="25.5" height="25.5"/>
</g>
<g class="st2">
	<polygon class="st5" points="105.65,78.29 80.15,52.79 105.65,52.79 	"/>
</g>
<g class="st2">
	<polygon class="st5" points="105.65,115.04 80.15,89.54 105.65,89.54 	"/>
</g>
<g>
	<g>
		<path class="st6" d="M92.08,74.4c-0.58,0-1.11-0.34-1.36-0.87l-4.52-9.73c-0.35-0.75-0.02-1.64,0.73-1.99
			c0.75-0.35,1.64-0.02,1.99,0.73l3.1,6.67l4.84-11.33c0.33-0.76,1.21-1.12,1.97-0.79c0.76,0.33,1.12,1.21,0.79,1.97l-6.16,14.43
			c-0.23,0.54-0.76,0.9-1.36,0.91C92.09,74.4,92.09,74.4,92.08,74.4z"/>
	</g>
</g>
<g>
	<g>
		<path class="st6" d="M92.08,111.15c-0.58,0-1.11-0.34-1.36-0.87l-4.52-9.73c-0.35-0.75-0.02-1.64,0.73-1.99
			c0.75-0.35,1.64-0.02,1.99,0.73l3.1,6.67l4.84-11.33c0.33-0.76,1.21-1.12,1.97-0.79c0.76,0.33,1.12,1.21,0.79,1.97l-6.16,14.43
			c-0.23,0.54-0.76,0.9-1.36,0.91C92.09,111.15,92.09,111.15,92.08,111.15z"/>
	</g>
</g>
<g>
	<g>
		<path class="st4" d="M67.07,62.88h-39.5c-0.83,0-1.5-0.67-1.5-1.5c0-0.83,0.67-1.5,1.5-1.5h39.5c0.83,0,1.5,0.67,1.5,1.5
			C68.57,62.21,67.89,62.88,67.07,62.88z"/>
	</g>
</g>
<g>
	<g>
		<path class="st4" d="M67.07,72.41h-39.5c-0.83,0-1.5-0.67-1.5-1.5c0-0.83,0.67-1.5,1.5-1.5h39.5c0.83,0,1.5,0.67,1.5,1.5
			C68.57,71.74,67.89,72.41,67.07,72.41z"/>
	</g>
</g>
<g>
	<g>
		<path class="st4" d="M67.07,99.27h-39.5c-0.83,0-1.5-0.67-1.5-1.5c0-0.83,0.67-1.5,1.5-1.5h39.5c0.83,0,1.5,0.67,1.5,1.5
			C68.57,98.6,67.89,99.27,67.07,99.27z"/>
	</g>
</g>
<g>
	<g>
		<path class="st4" d="M67.07,108.8h-39.5c-0.83,0-1.5-0.67-1.5-1.5c0-0.83,0.67-1.5,1.5-1.5h39.5c0.83,0,1.5,0.67,1.5,1.5
			C68.57,108.13,67.89,108.8,67.07,108.8z"/>
	</g>
</g>
</svg>
