<?xml version="1.0" encoding="utf-8"?>
<!-- Generator: Adobe Illustrator 24.0.1, SVG Export Plug-In . SVG Version: 6.00 Build 0)  -->
<svg version="1.1" id="Layer_1" xmlns="http://www.w3.org/2000/svg" xmlns:xlink="http://www.w3.org/1999/xlink" x="0px" y="0px"
	 viewBox="0 0 135.6 154.8" style="enable-background:new 0 0 135.6 154.8;" xml:space="preserve">
<style type="text/css">
	.st0{fill-rule:evenodd;clip-rule:evenodd;fill:#4FC6DA;}
	.st1{opacity:0.2;}
	.st2{fill:#4FC6DA;}
	.st3{fill-rule:evenodd;clip-rule:evenodd;fill:#FAE480;}
	.st4{fill:#FAE480;}
	.st5{fill-rule:evenodd;clip-rule:evenodd;fill:#F26527;}
	.st6{fill:#F26527;}
</style>
<g>
	<g>
		<g>
			<path class="st0" d="M94.53,60.32c0-19.96-12.86-36.14-39.95-36.14c-19.96,0-36.27,11.37-35.85,34.48
				c0.01,0.8,0.04,1.59,0.11,2.37c0.21,2.3-0.27,4.62-1.35,6.66c-1.16,2.21-3.19,6.02-8.03,15.12c-1.28,2.41,0.07,5.37,3.27,5.46
				l6.21,0.12c0.3,6.11,0.54,6.79,0.3,13.11c-0.31,8.2,1.69,10.59,8.87,10.6h12.29v10.47v2.66v1.96c0,1.31,1.24,2.38,2.77,2.38
				h33.53c1.53,0,2.77-1.07,2.77-2.38v-4.62c0-0.07-0.02-0.14-0.02-0.21v-12.88c0-10.26,2.97-20.35,8.78-28.81
				C92.2,74.88,94.53,67.88,94.53,60.32z"/>
		</g>
	</g>
	<g class="st1">
		<g>
			<path class="st2" d="M88.23,80.67c3.97-5.79,6.3-12.8,6.3-20.35c0-19.42-12.18-35.25-37.79-36.1v105.35h19.97
				c1.53,0,2.77-1.07,2.77-2.38v-4.62c0-0.07-0.02-0.14-0.02-0.21v-12.88C79.45,99.22,82.43,89.14,88.23,80.67z"/>
		</g>
	</g>
</g>
<g>
	<g>
		<g>
			<path class="st3" d="M110.68,60.82c0-19.96-12.86-36.14-39.95-36.14c-19.96,0-36.27,11.37-35.85,34.48
				c0.01,0.8,0.04,1.59,0.11,2.37c0.21,2.3-0.27,4.62-1.35,6.66c-1.16,2.21-3.19,6.02-8.03,15.12c-1.28,2.41,0.07,5.37,3.27,5.46
				l6.21,0.12c0.3,6.11,0.54,6.79,0.3,13.11c-0.31,8.2,1.69,10.59,8.87,10.6h12.29v10.47v2.66v1.96c0,1.31,1.24,2.38,2.77,2.38
				h33.53c1.53,0,2.77-1.07,2.77-2.38v-4.62c0-0.07-0.02-0.14-0.02-0.21v-12.88c0-10.26,2.97-20.35,8.78-28.81
				C108.35,75.38,110.68,68.38,110.68,60.82z"/>
		</g>
	</g>
	<g class="st1">
		<g>
			<path class="st4" d="M104.38,81.18c3.97-5.79,6.3-12.8,6.3-20.35c0-19.42-12.18-35.25-37.79-36.1v105.35h19.97
				c1.53,0,2.77-1.07,2.77-2.38v-4.62c0-0.07-0.02-0.14-0.02-0.21v-12.88C95.6,99.73,98.57,89.64,104.38,81.18z"/>
		</g>
	</g>
</g>
<g>
	<g>
		<g>
			<path class="st5" d="M126.27,60.82c0-19.96-12.86-36.14-39.95-36.14c-19.96,0-36.27,11.37-35.85,34.48
				c0.01,0.8,0.04,1.59,0.11,2.37c0.21,2.3-0.27,4.62-1.35,6.66c-1.16,2.21-3.19,6.02-8.03,15.12c-1.28,2.41,0.07,5.37,3.27,5.46
				l6.21,0.12c0.3,6.11,0.54,6.79,0.3,13.11c-0.31,8.2,1.69,10.59,8.87,10.6h12.29v10.47v2.66v1.96c0,1.31,1.24,2.38,2.77,2.38
				h33.53c1.53,0,2.77-1.07,2.77-2.38v-4.62c0-0.07-0.02-0.14-0.02-0.21v-12.88c0-10.26,2.97-20.35,8.78-28.81
				C123.94,75.38,126.27,68.38,126.27,60.82z"/>
		</g>
	</g>
	<g class="st1">
		<g>
			<path class="st6" d="M119.97,81.18c3.97-5.79,6.3-12.8,6.3-20.35c0-19.42-12.18-35.25-37.79-36.1v105.35h19.97
				c1.53,0,2.77-1.07,2.77-2.38v-4.62c0-0.07-0.02-0.14-0.02-0.21v-12.88C111.19,99.73,114.16,89.64,119.97,81.18z"/>
		</g>
	</g>
</g>
</svg>
