<?xml version="1.0" encoding="utf-8"?>
<!-- Generator: Adobe Illustrator 24.0.1, SVG Export Plug-In . SVG Version: 6.00 Build 0)  -->
<svg version="1.1" id="Layer_1" xmlns="http://www.w3.org/2000/svg" xmlns:xlink="http://www.w3.org/1999/xlink" x="0px" y="0px"
	 viewBox="0 0 135.6 154.8" style="enable-background:new 0 0 135.6 154.8;" xml:space="preserve">
<style type="text/css">
	.st0{fill:#365471;}
	.st1{fill:#39597B;}
	.st2{fill:#E3E2DF;}
	.st3{fill:#EEEDEE;}
	.st4{fill:#F26527;}
	.st5{opacity:0.2;}
	.st6{fill:#F15947;}
	.st7{fill:#88CB96;}
	.st8{opacity:0.12;}
</style>
<g>
	<path class="st0" d="M128.95,122.92c0,2.32-1.88,4.19-4.19,4.19H10.84c-2.32,0-4.19-1.88-4.19-4.19V46.48
		c0-2.32,1.88-4.19,4.19-4.19h113.92c2.32,0,4.19,1.88,4.19,4.19V122.92z"/>
</g>
<g>
	<path class="st1" d="M67.8,127.11H10.84c-2.32,0-4.19-1.88-4.19-4.19V46.48c0-2.32,1.88-4.19,4.19-4.19H67.8V127.11z"/>
</g>
<g>
	<path class="st2" d="M123.53,119.58c0,0.21-0.22,0.38-0.49,0.38H12.56c-0.27,0-0.49-0.17-0.49-0.38V49.07
		c0-0.21,0.22-0.38,0.49-0.38h110.48c0.27,0,0.49,0.17,0.49,0.38V119.58z"/>
</g>
<g>
	<path class="st3" d="M123.4,119.83c-0.09,0.08-0.22,0.13-0.37,0.13H12.56c-0.27,0-0.49-0.17-0.49-0.38V49.07
		c0-0.1,0.05-0.19,0.14-0.26C12.2,48.81,123.48,119.77,123.4,119.83z"/>
</g>
<g>
	<polygon class="st4" points="66.34,113.96 59.16,106.73 49.1,108.34 47.53,98.27 38.43,93.68 43.09,84.61 38.43,75.54 47.53,70.96 
		49.1,60.88 59.16,62.5 66.34,55.27 73.52,62.5 83.58,60.88 85.15,70.96 94.25,75.55 89.59,84.61 94.25,93.68 85.15,98.27 
		83.58,108.34 73.52,106.73 	"/>
</g>
<g class="st5">
	<polygon class="st6" points="66.34,113.96 66.34,55.27 73.52,62.5 83.58,60.88 85.15,70.96 94.25,75.55 89.59,84.61 94.25,93.68 
		85.15,98.27 83.58,108.34 73.52,106.73 	"/>
</g>
<g>
	<polygon class="st7" points="75.38,68.39 75.38,44.87 75.38,26.35 59.3,26.35 59.3,44.87 59.3,68.39 51.26,68.39 59.3,77 
		67.34,85.6 75.38,77 83.42,68.39 	"/>
</g>
<g class="st8">
	<polygon class="st6" points="75.38,68.39 75.38,44.87 75.38,26.35 67.34,26.35 67.34,85.6 67.34,85.6 75.38,77 83.42,68.39 	"/>
</g>
</svg>
