<?xml version="1.0" encoding="utf-8"?>
<!-- Generator: Adobe Illustrator 24.0.1, SVG Export Plug-In . SVG Version: 6.00 Build 0)  -->
<svg version="1.1" id="Layer_1" xmlns="http://www.w3.org/2000/svg" xmlns:xlink="http://www.w3.org/1999/xlink" x="0px" y="0px"
	 viewBox="0 0 135.6 154.8" style="enable-background:new 0 0 135.6 154.8;" xml:space="preserve">
<style type="text/css">
	.st0{fill:#365471;}
	.st1{fill:#39597B;}
	.st2{fill:#E3E2DF;}
	.st3{fill:#EEEDEE;}
	.st4{fill:#010101;}
	.st5{fill:#F26527;}
</style>
<g>
	<path class="st0" d="M128.27,117.7c0,2.46-1.88,4.45-4.19,4.45H10.15c-2.32,0-4.19-1.99-4.19-4.45V36.55
		c0-2.46,1.88-4.45,4.19-4.45h113.92c2.32,0,4.19,1.99,4.19,4.45V117.7z"/>
</g>
<g>
	<path class="st1" d="M67.12,122.16H10.15c-2.32,0-4.19-1.99-4.19-4.45V36.55c0-2.46,1.88-4.45,4.19-4.45h56.96V122.16z"/>
</g>
<g>
	<path class="st2" d="M122.85,115.33c0,0.23-0.22,0.41-0.49,0.41H11.88c-0.27,0-0.49-0.18-0.49-0.41V39.31
		c0-0.23,0.22-0.41,0.49-0.41h110.48c0.27,0,0.49,0.18,0.49,0.41V115.33z"/>
</g>
<g>
	<path class="st3" d="M122.72,115.66c-0.09,0.08-0.22,0.14-0.37,0.14H11.88c-0.27,0-0.49-0.18-0.49-0.41V39.13
		c0-0.11,0.05-0.21,0.14-0.28C11.52,38.85,122.8,115.58,122.72,115.66z"/>
</g>
<g>
	<path class="st4" d="M105.63,87.14c0,0.3,0,0.61,0,0.93c0.02-0.07,0.04-0.14,0.03-0.22C105.65,87.74,105.64,87.49,105.63,87.14z"/>
</g>
<g>
	<path class="st4" d="M121.54,100.12v-0.16c0,0.02,0,0.03,0,0.05C121.54,100.05,121.54,100.08,121.54,100.12z"/>
</g>
<g>
	<rect x="11.25" y="62.54" class="st5" width="84.21" height="53.26"/>
</g>
<g>
	<rect x="11.25" y="38.59" class="st5" width="111.51" height="11.23"/>
</g>
<g>
	
		<rect x="78.68" y="71.66" transform="matrix(6.123234e-17 -1 1 6.123234e-17 39.9818 194.5303)" class="st5" width="77.16" height="11.23"/>
</g>
</svg>
