<?xml version="1.0" encoding="utf-8"?>
<!-- Generator: Adobe Illustrator 24.0.1, SVG Export Plug-In . SVG Version: 6.00 Build 0)  -->
<svg version="1.1" id="Layer_1" xmlns="http://www.w3.org/2000/svg" xmlns:xlink="http://www.w3.org/1999/xlink" x="0px" y="0px"
	 viewBox="0 0 135.6 154.8" style="enable-background:new 0 0 135.6 154.8;" xml:space="preserve">
<style type="text/css">
	.st0{fill:#365471;}
	.st1{fill:#404D66;}
	.st2{fill:#E3E2DF;}
	.st3{fill:#EEEDEE;}
	.st4{fill:#FFFFFF;}
	.st5{fill:#E1754D;}
	.st6{fill:#F47F57;}
	.st7{fill:#F26527;}
	.st8{fill:#4FC6DA;}
</style>
<g>
	<g>
		<path class="st0" d="M119.25,25.79H14.98c-2.12,0-3.84,1.81-3.84,4.04v73.58c0,2.23,1.72,4.04,3.84,4.04h39.13H79.1h40.15
			c2.12,0,3.84-1.81,3.84-4.04V29.83C123.09,27.6,121.37,25.79,119.25,25.79z"/>
	</g>
	<g>
		<path class="st1" d="M67.12,25.79H14.98c-2.12,0-3.84,1.81-3.84,4.04v73.58c0,2.23,1.72,4.04,3.84,4.04h39.13h13.01L67.12,25.79z"
			/>
	</g>
	<g>
		<path class="st2" d="M118.12,95.24c0,0.19-0.2,0.34-0.45,0.34H16.56c-0.25,0-0.45-0.15-0.45-0.34V32.3c0-0.19,0.2-0.34,0.45-0.34
			h101.12c0.25,0,0.45,0.15,0.45,0.34V95.24z"/>
	</g>
	<g>
		<path class="st3" d="M118,95.47c-0.08,0.06-0.2,0.1-0.32,0.1H16.56c-0.25,0-0.45-0.15-0.45-0.34V32.3c0-0.09,0.05-0.18,0.13-0.24
			C16.32,32,118.08,95.41,118,95.47z"/>
	</g>
	<g>
		<rect x="54.11" y="107.44" class="st0" width="24.99" height="13.67"/>
	</g>
	<g>
		<rect x="54.11" y="107.44" class="st1" width="13.01" height="13.67"/>
	</g>
	<g>
		<path class="st0" d="M91.04,121.11H79.1H54.11H42.17c-0.07,0-0.13,0.05-0.13,0.11v6.97c0,0.06,0.06,0.11,0.13,0.11h48.86
			c0.07,0,0.13-0.05,0.13-0.11v-6.97C91.17,121.16,91.11,121.11,91.04,121.11z"/>
	</g>
	<g>
		<path class="st1" d="M67.12,121.11H54.11H42.17c-0.07,0-0.13,0.05-0.13,0.11v6.97c0,0.06,0.06,0.11,0.13,0.11h24.94L67.12,121.11z
			"/>
	</g>
	<g>
		<path class="st4" d="M115.1,100.77c0,1.17-0.95,2.12-2.12,2.12c-1.17,0-2.12-0.95-2.12-2.12c0-1.17,0.95-2.12,2.12-2.12
			C114.15,98.66,115.1,99.6,115.1,100.77z"/>
	</g>
	<g>
		<path class="st5" d="M114.53,100.77c0,0.86-0.69,1.55-1.55,1.55c-0.86,0-1.55-0.7-1.55-1.55c0-0.86,0.69-1.55,1.55-1.55
			C113.84,99.22,114.53,99.92,114.53,100.77z"/>
	</g>
	<g>
		<path class="st6" d="M112.98,102.33c-0.86,0-1.55-0.7-1.55-1.55c0-0.86,0.69-1.55,1.55-1.55V102.33z"/>
	</g>
</g>
<rect x="16.05" y="31.95" class="st7" width="79.46" height="50.14"/>
<rect x="98.86" y="31.97" class="st7" width="19.45" height="50.12"/>
<rect x="16.05" y="77.04" class="st8" width="102.27" height="19.48"/>
</svg>
