<?xml version="1.0" encoding="utf-8"?>
<!-- Generator: Adobe Illustrator 24.0.1, SVG Export Plug-In . SVG Version: 6.00 Build 0)  -->
<svg version="1.1" id="Layer_1" xmlns="http://www.w3.org/2000/svg" xmlns:xlink="http://www.w3.org/1999/xlink" x="0px" y="0px"
	 viewBox="0 0 135.6 154.8" style="enable-background:new 0 0 135.6 154.8;" xml:space="preserve">
<style type="text/css">
	.st0{fill:#E3E3E3;}
	.st1{fill:#4FC6DA;}
	.st2{opacity:0.2;}
	.st3{fill:#FFFFFF;}
	.st4{fill:#F26527;}
	.st5{fill:#F15947;}
	.st6{fill:#88CB96;}
	.st7{fill:#FAE480;}
</style>
<g>
	<g>
		<rect x="15.69" y="26.29" class="st0" width="103.42" height="103.42"/>
	</g>
	<g>
		<rect x="15.69" y="26.29" class="st1" width="103.15" height="14.35"/>
	</g>
	<g class="st2">
		<rect x="66.57" y="26.29" class="st0" width="52.54" height="103.42"/>
	</g>
	<g class="st2">
		<rect x="66.57" y="26.29" class="st1" width="52.25" height="14.35"/>
	</g>
	<g>
		<g>
			<g>
				<path class="st3" d="M24.71,36.04c-0.09,0-0.19-0.01-0.29-0.03c-0.09-0.02-0.19-0.05-0.29-0.09c-0.09-0.04-0.18-0.08-0.26-0.14
					c-0.08-0.05-0.16-0.11-0.23-0.18c-0.29-0.29-0.45-0.68-0.45-1.09c0-0.4,0.16-0.79,0.45-1.08c0.07-0.06,0.15-0.13,0.23-0.18
					c0.08-0.06,0.17-0.1,0.26-0.14c0.09-0.04,0.19-0.07,0.29-0.09c0.5-0.09,1.03,0.07,1.38,0.42c0.27,0.28,0.44,0.68,0.44,1.08
					c0,0.41-0.16,0.79-0.44,1.09C25.51,35.88,25.12,36.04,24.71,36.04z"/>
			</g>
		</g>
		<g>
			<g>
				<path class="st3" d="M35.14,34.52c0-0.84,0.69-1.53,1.53-1.53l0,0c0.84,0,1.53,0.68,1.53,1.53l0,0c0,0.83-0.68,1.52-1.53,1.52
					l0,0C35.83,36.03,35.14,35.35,35.14,34.52z"/>
			</g>
		</g>
		<g>
			<g>
				<path class="st3" d="M48.61,36.04c-0.4,0-0.79-0.16-1.08-0.45c-0.29-0.29-0.45-0.68-0.45-1.09c0-0.4,0.16-0.79,0.45-1.08
					c0.57-0.57,1.6-0.56,2.16,0c0.29,0.28,0.45,0.68,0.45,1.08c0,0.41-0.16,0.8-0.45,1.09C49.42,35.88,49.02,36.04,48.61,36.04z"/>
			</g>
		</g>
	</g>
</g>
<g>
	<g>
		<path class="st1" d="M40.75,79.58H30.7c-2.31,0-4.18-1.87-4.18-4.18V65.35c0-2.31,1.87-4.18,4.18-4.18h10.05
			c2.31,0,4.18,1.87,4.18,4.18V75.4C44.93,77.71,43.06,79.58,40.75,79.58z"/>
	</g>
	<g class="st2">
		<path class="st1" d="M40.74,61.16h-5.03v18.41h5.03c2.31,0,4.18-1.87,4.18-4.18V65.35C44.92,63.04,43.05,61.16,40.74,61.16z"/>
	</g>
</g>
<g>
	<path class="st4" d="M71.6,79.58H61.55c-2.31,0-4.18-1.87-4.18-4.18V65.35c0-2.31,1.87-4.18,4.18-4.18H71.6
		c2.31,0,4.18,1.87,4.18,4.18V75.4C75.78,77.71,73.91,79.58,71.6,79.58z"/>
</g>
<g class="st2">
	<path class="st5" d="M71.59,61.16h-5.03v18.41h5.03c2.31,0,4.18-1.87,4.18-4.18V65.35C75.77,63.04,73.9,61.16,71.59,61.16z"/>
</g>
<g>
	<g>
		<path class="st6" d="M102.45,79.58H92.4c-2.31,0-4.18-1.87-4.18-4.18V65.35c0-2.31,1.87-4.18,4.18-4.18h10.05
			c2.31,0,4.18,1.87,4.18,4.18V75.4C106.63,77.71,104.76,79.58,102.45,79.58z"/>
	</g>
	<g class="st2">
		<path class="st6" d="M102.44,61.16h-5.03v18.41h5.03c2.31,0,4.18-1.87,4.18-4.18V65.35C106.62,63.04,104.75,61.16,102.44,61.16z"
			/>
	</g>
</g>
<g>
	<g>
		<path class="st6" d="M40.74,106.48H30.69c-2.31,0-4.18-1.87-4.18-4.18V92.25c0-2.31,1.87-4.18,4.18-4.18h10.05
			c2.31,0,4.18,1.87,4.18,4.18v10.05C44.92,104.61,43.05,106.48,40.74,106.48z"/>
	</g>
	<g class="st2">
		<path class="st6" d="M40.73,88.07H35.7v18.41h5.03c2.31,0,4.18-1.87,4.18-4.18V92.25C44.91,89.94,43.03,88.07,40.73,88.07z"/>
	</g>
</g>
<g>
	<path class="st5" d="M71.59,106.48H61.54c-2.31,0-4.18-1.87-4.18-4.18V92.25c0-2.31,1.87-4.18,4.18-4.18h10.05
		c2.31,0,4.18,1.87,4.18,4.18v10.05C75.77,104.61,73.9,106.48,71.59,106.48z"/>
</g>
<g class="st2">
	<path class="st5" d="M71.58,88.07h-5.03v18.41h5.03c2.31,0,4.18-1.87,4.18-4.18V92.25C75.76,89.94,73.89,88.07,71.58,88.07z"/>
</g>
<g>
	<g>
		<path class="st7" d="M102.44,106.48H92.39c-2.31,0-4.18-1.87-4.18-4.18V92.25c0-2.31,1.87-4.18,4.18-4.18h10.05
			c2.31,0,4.18,1.87,4.18,4.18v10.05C106.62,104.61,104.75,106.48,102.44,106.48z"/>
	</g>
	<g class="st2">
		<path class="st7" d="M102.43,88.07H97.4v18.41h5.03c2.31,0,4.18-1.87,4.18-4.18V92.25C106.61,89.94,104.74,88.07,102.43,88.07z"/>
	</g>
</g>
</svg>
