<?xml version="1.0" encoding="utf-8"?>
<!-- Generator: Adobe Illustrator 24.0.1, SVG Export Plug-In . SVG Version: 6.00 Build 0)  -->
<svg version="1.1" id="Layer_1" xmlns="http://www.w3.org/2000/svg" xmlns:xlink="http://www.w3.org/1999/xlink" x="0px" y="0px"
	 viewBox="0 0 135.6 154.8" style="enable-background:new 0 0 135.6 154.8;" xml:space="preserve">
<style type="text/css">
	.st0{fill:#365471;}
	.st1{fill:#39597B;}
	.st2{fill:#E3E2DF;}
	.st3{fill:#EEEDEE;}
	.st4{fill:#010101;}
	.st5{fill:#4FC6DA;}
	.st6{fill:#F26527;}
	.st7{opacity:0.2;}
	.st8{fill:#F15947;}
	.st9{fill:#E3E3E3;}
	.st10{fill:#404D66;}
	.st11{fill:#FFFFFF;}
</style>
<g>
	<path class="st0" d="M128.66,125.21c0,2.32-1.88,4.19-4.19,4.19H10.54c-2.32,0-4.19-1.88-4.19-4.19V48.77
		c0-2.32,1.88-4.19,4.19-4.19h113.92c2.32,0,4.19,1.88,4.19,4.19V125.21z"/>
</g>
<g>
	<path class="st1" d="M67.5,129.41H10.54c-2.32,0-4.19-1.88-4.19-4.19V48.77c0-2.32,1.88-4.19,4.19-4.19H67.5V129.41z"/>
</g>
<g>
	<path class="st2" d="M123.24,121.88c0,0.21-0.22,0.38-0.49,0.38H12.26c-0.27,0-0.49-0.17-0.49-0.38V51.37
		c0-0.21,0.22-0.38,0.49-0.38h110.48c0.27,0,0.49,0.17,0.49,0.38V121.88z"/>
</g>
<g>
	<path class="st3" d="M123.11,122.13c-0.09,0.08-0.22,0.13-0.37,0.13H12.26c-0.27,0-0.49-0.17-0.49-0.38V51.37
		c0-0.1,0.05-0.19,0.14-0.26C11.91,51.11,123.19,122.06,123.11,122.13z"/>
</g>
<g>
	<path class="st4" d="M106.02,93.43c0,0.29,0,0.58,0,0.88c0.02-0.06,0.04-0.13,0.03-0.21C106.03,93.99,106.03,93.75,106.02,93.43z"
		/>
</g>
<g>
	<path class="st4" d="M121.93,105.65v-0.15c0,0.02,0,0.03,0,0.05C121.93,105.58,121.93,105.61,121.93,105.65z"/>
</g>
<g>
	<g>
		<path class="st5" d="M89.34,86.47H42.61c-3.96,0-7.17-3.21-7.17-7.17V41.85c0-3.96,3.21-7.17,7.17-7.17h46.73
			c3.96,0,7.17,3.21,7.17,7.17V79.3C96.51,83.26,93.3,86.47,89.34,86.47z"/>
	</g>
	<g>
		<path class="st6" d="M78.32,34.68c-8.38,0-16.75,0-25.13,0c1.22-3.26,2.44-6.51,3.66-9.77c8.78,0,9.02,0,17.8,0
			C75.88,28.17,77.1,31.42,78.32,34.68z"/>
	</g>
	<g class="st7">
		<path class="st5" d="M92.21,34.6H78.32H65.76v51.79h26.45c2.38,0,4.31-1.93,4.31-4.31V38.91C96.51,36.53,94.58,34.6,92.21,34.6z"
			/>
	</g>
	<g class="st7">
		<path class="st8" d="M78.32,34.6c-1.22-3.26-2.44-6.51-3.66-9.77c-4.39,0-6.65,0-8.9,0v9.77H78.32z"/>
	</g>
	<g>
		<g>
			<g>
				<path class="st9" d="M65.98,42.21c-10.14,0-18.36,8.22-18.36,18.36c0,6.78,3.68,12.7,9.15,15.88c2.71,1.57,5.85,2.48,9.2,2.48
					c6.08,0,11.48-2.96,14.82-7.52c2.23-3.04,3.54-6.78,3.54-10.84C84.34,50.43,76.12,42.21,65.98,42.21z"/>
			</g>
		</g>
		<g class="st7">
			<g>
				<path class="st9" d="M65.98,42.21v36.72c6.08,0,11.48-2.96,14.82-7.52c2.23-3.04,3.54-6.78,3.54-10.84
					C84.34,50.43,76.12,42.21,65.98,42.21z"/>
			</g>
		</g>
	</g>
	<g>
		<g>
			<g>
				<path class="st10" d="M65.98,45.13c-8.43,0-15.27,6.84-15.27,15.27c0,5.64,3.06,10.57,7.61,13.21c2.25,1.31,4.86,2.06,7.66,2.06
					c5.06,0,9.55-2.46,12.32-6.26c1.85-2.53,2.95-5.64,2.95-9.01C81.25,51.97,74.41,45.13,65.98,45.13z"/>
			</g>
		</g>
		<g class="st7">
			<g>
				<path class="st10" d="M65.98,45.13v30.54c5.06,0,9.55-2.46,12.32-6.26c1.85-2.53,2.95-5.64,2.95-9.01
					C81.25,51.97,74.41,45.13,65.98,45.13z"/>
			</g>
		</g>
	</g>
	<g>
		<rect x="41.38" y="28.33" class="st6" width="6.35" height="6.35"/>
	</g>
	<g class="st7">
		<rect x="44.55" y="28.26" class="st8" width="3.17" height="6.35"/>
	</g>
	<g>
		<path class="st6" d="M90.32,42.55h-4.46c-1.24,0-2.25-1.01-2.25-2.25v0c0-1.24,1.01-2.25,2.25-2.25h4.46
			c1.24,0,2.25,1.01,2.25,2.25v0C92.57,41.54,91.56,42.55,90.32,42.55z"/>
	</g>
	<g class="st7">
		<path class="st8" d="M83.6,40.1c0-1.14,0.92-2.06,2.06-2.06h4.86c1.14,0,2.06,0.92,2.06,2.06H83.6z"/>
	</g>
	<g>
		<circle class="st11" cx="57.71" cy="55.77" r="1.99"/>
	</g>
</g>
</svg>
